<?xml version="1.0" encoding="UTF-8" standalone="no"?>
<svg
   xmlns:dc="http://purl.org/dc/elements/1.1/"
   xmlns:cc="http://creativecommons.org/ns#"
   xmlns:rdf="http://www.w3.org/1999/02/22-rdf-syntax-ns#"
   xmlns:svg="http://www.w3.org/2000/svg"
   xmlns="http://www.w3.org/2000/svg"
   width="100%"
   height="100%"
   viewBox="0 0 64 64"
   version="1.1"
   xml:space="preserve"
   style="fill-rule:evenodd;clip-rule:evenodd;stroke-linecap:round;stroke-linejoin:round;stroke-miterlimit:2;"
   id="svg11">
  <metadata
   id="metadata17">
    <rdf:RDF>
      <cc:Work
   rdf:about="">
        <dc:format>image/svg+xml</dc:format>

        <dc:type
   rdf:resource="http://purl.org/dc/dcmitype/StillImage" />

      </cc:Work>

    </rdf:RDF>

  </metadata>

  <defs
   id="defs15" />

  
  <path
   d="M36.474,14.5c2.94,4.273 7.612,13.166 7.612,16.414c0,6.67 -5.416,12.086 -12.086,12.086c-6.67,0 -12.086,-5.416 -12.086,-12.086c0,-5.043 6.908,-14.303 10.279,-18.521c0.43,-0.563 1.098,-0.893 1.807,-0.893"
   style="fill:none;stroke:#222a33;stroke-width:1.5px;"
   id="path3" />

  <path
   d="M40.5,32.457c0,3.335 -2.708,6.043 -6.043,6.043"
   style="fill:none;stroke:#222a33;stroke-width:1.5px;"
   id="path5" />

  <path
   d="M48,46.5c0,1.104 -7.169,2 -16,2c-8.831,0 -16,-0.896 -16,-2"
   style="fill:none;stroke:#222a33;stroke-width:1.5px;"
   id="path7" />

  <path
   d="M46.395,43.5c5.831,0.913 9.605,2.365 9.605,4c0,2.76 -10.754,5 -24,5c-13.246,0 -24,-2.24 -24,-5c0,-1.635 3.774,-3.087 9.605,-4"
   style="fill:none;stroke:#222a33;stroke-width:1.5px;"
   id="path9" />

</svg>
